<svg width="20" height="17" viewBox="0 0 20 17" fill="none" xmlns="http://www.w3.org/2000/svg">
<path fill-rule="evenodd" clip-rule="evenodd" d="M2.2 1.90978L9.76 7.57978C9.82924 7.63171 9.91345 7.65978 10 7.65978C10.0865 7.65978 10.1708 7.63171 10.24 7.57978L17.8 1.90978H2.2ZM18.8 2.65978L10.96 8.53978C10.683 8.74749 10.3462 8.85978 10 8.85978C9.65381 8.85978 9.31695 8.74749 9.04 8.53978L1.2 2.65978V15.5098H18.8V2.65978ZM1 0.709778H19C19.2652 0.709778 19.5196 0.815135 19.7071 1.00267C19.8946 1.19021 20 1.44456 20 1.70978V15.7098C20 15.975 19.8946 16.2293 19.7071 16.4169C19.5196 16.6044 19.2652 16.7098 19 16.7098H1C0.734784 16.7098 0.48043 16.6044 0.292893 16.4169C0.105357 16.2293 0 15.975 0 15.7098V1.70978C0 1.44456 0.105357 1.19021 0.292893 1.00267C0.48043 0.815135 0.734784 0.709778 1 0.709778Z" fill="#D9D9D9"/>
</svg>
