<svg width="24" height="25" viewBox="0 0 24 25" fill="none" xmlns="http://www.w3.org/2000/svg">
<path d="M11.5 18.7098C15.5 18.7098 18.96 16.4898 20.74 13.2098C18.96 9.92978 15.5 7.70978 11.5 7.70978C7.50001 7.70978 4.04001 9.92978 2.26001 13.2098C4.04001 16.4898 7.50001 18.7098 11.5 18.7098ZM11.5 6.70978C16.06 6.70978 20 9.35978 21.86 13.2098C20 17.0598 16.06 19.7098 11.5 19.7098C6.94001 19.7098 3.00001 17.0598 1.14001 13.2098C3.00001 9.35978 6.94001 6.70978 11.5 6.70978ZM11.5 8.70978C14 8.70978 16 10.7098 16 13.2098C16 15.7098 14 17.7098 11.5 17.7098C9.00001 17.7098 7.00001 15.7098 7.00001 13.2098C7.00001 10.7098 9.00001 8.70978 11.5 8.70978ZM11.5 9.70978C10.5718 9.70978 9.68152 10.0785 9.02514 10.7349C8.36876 11.3913 8.00001 12.2815 8.00001 13.2098C8.00001 14.138 8.36876 15.0283 9.02514 15.6847C9.68152 16.341 10.5718 16.7098 11.5 16.7098C12.4283 16.7098 13.3185 16.341 13.9749 15.6847C14.6313 15.0283 15 14.138 15 13.2098C15 12.2815 14.6313 11.3913 13.9749 10.7349C13.3185 10.0785 12.4283 9.70978 11.5 9.70978Z" fill="#D9D9D9"/>
</svg>
