<svg width="12" height="16" viewBox="0 0 12 16" fill="none" xmlns="http://www.w3.org/2000/svg">
<path d="M2.44416 15.1787H9.55559C10.9419 15.1787 11.6316 14.4755 11.6316 13.0827V7.00239C11.6316 6.13839 11.5379 5.76353 11.0022 5.21439L7.30559 1.45782C6.79702 0.935248 6.38159 0.821533 5.62502 0.821533H2.44416C1.06474 0.821533 0.368164 1.53125 0.368164 2.92439V13.0827C0.368164 14.4821 1.06474 15.1787 2.44416 15.1787ZM2.49759 14.1007C1.80788 14.1007 1.44616 13.7321 1.44616 13.0627V2.94439C1.44616 2.28153 1.80788 1.89953 2.50445 1.89953H5.47759V5.79039C5.47759 6.6341 5.90616 7.04925 6.73645 7.04925H10.5536V13.0627C10.5536 13.7321 10.1985 14.1007 9.50216 14.1007H2.49759ZM6.85702 6.03782C6.59588 6.03782 6.48845 5.93096 6.48845 5.66296V2.10725L10.3456 6.0381L6.85702 6.03782ZM8.46416 8.89068H3.38131C3.14045 8.89068 2.96645 9.07153 2.96645 9.29925C2.96645 9.53353 3.14074 9.71439 3.38159 9.71439H8.46416C8.51893 9.71528 8.57331 9.70515 8.62408 9.6846C8.67485 9.66405 8.72097 9.6335 8.75969 9.59478C8.79842 9.55605 8.82897 9.50993 8.84952 9.45916C8.87006 9.40839 8.8802 9.35401 8.87931 9.29925C8.87931 9.07153 8.69845 8.89068 8.46416 8.89068ZM8.46416 11.2278H3.38131C3.14045 11.2278 2.96645 11.4152 2.96645 11.6495C2.96645 11.8772 3.14074 12.0515 3.38159 12.0515H8.46416C8.69845 12.0515 8.87931 11.8772 8.87931 11.6495C8.87931 11.4152 8.69845 11.2278 8.46416 11.2278Z" fill="#5856D6"/>
</svg>
