<svg width="58" height="58" viewBox="0 0 58 58" fill="none" xmlns="http://www.w3.org/2000/svg">
<circle cx="29" cy="29" r="29" fill="#2C2AB9"/>
<path d="M36.4851 37.154L30.2231 30.892C29.7231 31.318 29.1481 31.6477 28.4981 31.881C27.8481 32.1143 27.1948 32.231 26.5381 32.231C24.9368 32.231 23.5814 31.6767 22.4721 30.568C21.3628 29.4593 20.8081 28.1043 20.8081 26.503C20.8081 24.9017 21.3621 23.546 22.4701 22.436C23.5781 21.326 24.9328 20.7703 26.5341 20.769C28.1354 20.7677 29.4914 21.3223 30.6021 22.433C31.7128 23.5437 32.2681 24.8993 32.2681 26.5C32.2681 27.1947 32.1451 27.867 31.8991 28.517C31.6531 29.167 31.3298 29.723 30.9291 30.185L37.1911 36.446L36.4851 37.154ZM26.5391 31.23C27.8658 31.23 28.9858 30.7733 29.8991 29.86C30.8124 28.9467 31.2691 27.8263 31.2691 26.499C31.2691 25.1717 30.8124 24.0517 29.8991 23.139C28.9858 22.2263 27.8658 21.7697 26.5391 21.769C25.2124 21.7683 24.0921 22.225 23.1781 23.139C22.2641 24.053 21.8074 25.173 21.8081 26.499C21.8088 27.825 22.2654 28.945 23.1781 29.859C24.0908 30.773 25.2108 31.2297 26.5381 31.229" fill="white"/>
</svg>
