<svg width="100" height="100" viewBox="0 0 100 100" fill="none" xmlns="http://www.w3.org/2000/svg">
<path d="M36.7548 72.095C32.3623 72.095 29.1198 72.0175 26.1348 71.9425C23.5998 71.8825 21.2498 71.825 18.5273 71.825C14.2545 71.8204 10.158 70.1211 7.13649 67.1001C4.11495 64.079 2.41508 59.9828 2.40979 55.71C2.39966 53.0874 3.03438 50.5025 4.25808 48.1828C5.48178 45.8631 7.25693 43.8798 9.42729 42.4075C9.06585 40.6488 8.88408 38.8579 8.88479 37.0625C8.88479 22.4575 20.7673 10.575 35.3748 10.575C45.1548 10.575 54.1123 15.985 58.7048 24.51C60.2009 22.9776 61.9895 21.7611 63.9645 20.9328C65.9394 20.1044 68.0606 19.6809 70.2023 19.6875C72.6505 19.6898 75.0661 20.2492 77.2662 21.3234C79.4662 22.3976 81.3929 23.9583 82.9004 25.8873C84.4079 27.8164 85.4567 30.0632 85.9672 32.4577C86.4778 34.8521 86.4368 37.3313 85.8473 39.7075C89.2285 40.6612 92.2057 42.6931 94.3262 45.494C96.4466 48.295 97.5944 51.7119 97.5948 55.225C97.5902 59.4984 95.8907 63.5956 92.8691 66.6176C89.8476 69.6396 85.7507 71.3397 81.4773 71.345C77.3248 71.345 74.4098 71.3775 71.5298 71.405C68.7148 71.435 65.9323 71.465 62.0698 71.465C61.7383 71.465 61.4203 71.3333 61.1859 71.0989C60.9515 70.8645 60.8198 70.5465 60.8198 70.215C60.8198 69.8835 60.9515 69.5655 61.1859 69.3311C61.4203 69.0967 61.7383 68.965 62.0698 68.965C65.9223 68.965 68.6948 68.935 71.5023 68.905C74.3898 68.875 77.3148 68.845 81.4773 68.845C84.8691 68.8493 88.1404 67.5877 90.6509 65.307C93.1615 63.0264 94.7305 59.891 95.0511 56.5144C95.3716 53.1378 94.4205 49.7631 92.3839 47.0508C90.3473 44.3386 87.3718 42.484 84.0398 41.85C83.864 41.8163 83.6976 41.7453 83.5516 41.6418C83.4057 41.5382 83.2837 41.4046 83.1938 41.2498C83.104 41.095 83.0484 40.9228 83.0309 40.7447C83.0134 40.5666 83.0343 40.3868 83.0923 40.2175C83.7923 38.1665 83.9931 35.9782 83.6782 33.8341C83.3632 31.6899 82.5415 29.6518 81.2813 27.8888C80.021 26.1258 78.3585 24.6887 76.4317 23.6967C74.505 22.7047 72.3694 22.1865 70.2023 22.185C68.1142 22.1786 66.053 22.6559 64.1801 23.5793C62.3073 24.5027 60.6737 25.8472 59.4073 27.5075C59.2761 27.6798 59.1021 27.815 58.9027 27.8995C58.7033 27.9841 58.4853 28.0151 58.2702 27.9896C58.0551 27.9641 57.8503 27.883 57.6762 27.7541C57.5021 27.6253 57.3646 27.4532 57.2773 27.255C55.3788 23.034 52.3028 19.4505 48.4182 16.9344C44.5336 14.4183 40.0055 13.0765 35.3773 13.07C22.1498 13.07 11.3873 23.83 11.3873 37.0575C11.3873 38.9575 11.6123 40.8525 12.0548 42.6875C12.1171 42.9454 12.0956 43.2165 11.9936 43.4614C11.8916 43.7064 11.7142 43.9125 11.4873 44.05C9.4746 45.2556 7.81012 46.964 6.65737 49.0074C5.50461 51.0508 4.90323 53.3589 4.91229 55.705C4.91692 59.3149 6.35318 62.7756 8.90603 65.328C11.4589 67.8804 14.9199 69.316 18.5298 69.32C21.2748 69.32 23.6423 69.375 26.1973 69.44C29.1673 69.51 32.3898 69.59 36.7573 69.59C37.0895 69.5903 37.4079 69.7226 37.6426 69.9577C37.8772 70.1929 38.0089 70.5116 38.0085 70.8437C38.0082 71.1759 37.8759 71.4944 37.6408 71.729C37.4057 71.9637 37.087 72.0953 36.7548 72.095Z" fill="#CDCDCD"/>
<path d="M65.875 56.14C65.5514 56.14 65.2404 56.0145 65.0075 55.79L48.065 39.4525L31.2 55.7225C30.9609 55.9526 30.6403 56.0783 30.3086 56.0719C29.9769 56.0656 29.6613 55.9278 29.4312 55.6887C29.2011 55.4497 29.0754 55.1291 29.0818 54.7974C29.0881 54.4657 29.2259 54.1501 29.465 53.92L47.1975 36.8175C47.4301 36.5926 47.7409 36.4667 48.0645 36.4662C48.388 36.4658 48.6992 36.5908 48.9325 36.815L66.74 53.9875C66.9201 54.1601 67.0445 54.3827 67.097 54.6266C67.1496 54.8705 67.128 55.1246 67.035 55.3561C66.9419 55.5876 66.7817 55.786 66.575 55.9257C66.3683 56.0654 66.1245 56.14 65.875 56.14Z" fill="#CDCDCD"/>
<path d="M48.0649 89.4225C47.7334 89.4225 47.4155 89.2908 47.1811 89.0564C46.9466 88.822 46.8149 88.504 46.8149 88.1725V37.7175C46.8149 37.386 46.9466 37.068 47.1811 36.8336C47.4155 36.5992 47.7334 36.4675 48.0649 36.4675C48.3965 36.4675 48.7144 36.5992 48.9488 36.8336C49.1832 37.068 49.3149 37.386 49.3149 37.7175V88.175C49.3143 88.5061 49.1823 88.8234 48.9479 89.0573C48.7136 89.2911 48.396 89.4225 48.0649 89.4225Z" fill="#CDCDCD"/>
</svg>
