<svg width="58" height="58" viewBox="0 0 58 58" fill="none" xmlns="http://www.w3.org/2000/svg">
<circle cx="29" cy="29" r="29" fill="#2C2AB9"/>
<path d="M28.47 20.97C28.6106 20.8295 28.8012 20.7507 29 20.7507C29.1988 20.7507 29.3894 20.8295 29.53 20.97L33.03 24.47C33.1705 24.6106 33.2493 24.8012 33.2493 25C33.2493 25.1987 33.1705 25.3894 33.03 25.53H29.75V32.5C29.75 32.6989 29.671 32.8897 29.5303 33.0303C29.3897 33.171 29.1989 33.25 29 33.25C28.8011 33.25 28.6103 33.171 28.4697 33.0303C28.329 32.8897 28.25 32.6989 28.25 32.5V25.53H24.97C24.8295 25.3894 24.7507 25.1987 24.7507 25C24.7507 24.8012 24.8295 24.6106 24.97 24.47L28.47 20.97ZM37 32.25C37.1989 32.25 37.3897 32.329 37.5303 32.4697C37.671 32.6103 37.75 32.8011 37.75 33V34C37.75 34.9946 37.3549 35.9484 36.6517 36.6516C35.9484 37.3549 34.9946 37.75 34 37.75H24C23.0054 37.75 22.0516 37.3549 21.3483 36.6516C20.6451 35.9484 20.25 34.9946 20.25 34V33.004C20.25 32.8051 20.329 32.6143 20.4697 32.4737C20.6103 32.333 20.8011 32.254 21 32.254C21.1989 32.254 21.3897 32.333 21.5303 32.4737C21.671 32.6143 21.75 32.8051 21.75 33.004V34C21.75 34.5967 21.9871 35.169 22.409 35.591C22.831 36.0129 23.4033 36.25 24 36.25H34C34.5967 36.25 35.169 36.0129 35.591 35.591C36.0129 35.169 36.25 34.5967 36.25 34V33C36.25 32.8011 36.329 32.6103 36.4697 32.4697C36.6103 32.329 36.8011 32.25 37 32.25Z" fill="white"/>
</svg>
